<svg
  width="25"
  height="20"
  viewBox="0 0 25 20"
  fill="none"
  xmlns="http://www.w3.org/2000/svg"
>
  <path
    d="M0.579273 11.4077C0.390754 11.2174 0.248249 10.9988 0.151758 10.7656C-0.148185 10.0406 -0.00350899 9.17508 0.585787 8.58579L8.58579 0.585786C9.36684 -0.195262 10.6332 -0.195262 11.4142 0.585786C12.1953 1.36684 12.1953 2.63316 11.4142 3.41421L6.82843 8H23C24.1046 8 25 8.89543 25 10C25 11.1046 24.1046 12 23 12H6.82843L11.4142 16.5858C12.1953 17.3668 12.1953 18.6332 11.4142 19.4142C10.6332 20.1953 9.36684 20.1953 8.58579 19.4142L0.59233 11.4207L0.585787 11.4142C0.58362 11.412 0.581427 11.4098 0.579273 11.4077Z"
    fill="#A7A7A7"
  />
</svg>
