<svg
  width="21"
  height="22"
  viewBox="0 0 21 22"
  fill="none"
  xmlns="http://www.w3.org/2000/svg"
>
  <path
    fill-rule="evenodd"
    clip-rule="evenodd"
    d="M13.1562 16.9849C11.9128 17.6334 10.4993 18 9 18C4.02954 18 0 13.9706 0 9C0 4.02942 4.02954 0 9 0C13.9705 0 18 4.02942 18 9C18 11.0189 17.3352 12.8826 16.2126 14.384L20.4143 18.5858C21.1953 19.3668 21.1953 20.6332 20.4143 21.4142C19.6331 22.1953 18.3669 22.1953 17.5857 21.4142L13.1562 16.9849ZM14 9C14 11.7615 11.7615 14 9 14C6.23853 14 4 11.7615 4 9C4 6.23853 6.23853 4 9 4C11.7615 4 14 6.23853 14 9Z"
    fill="#A7A7A7"
  />
</svg>
