<svg
  width="23"
  height="20"
  viewBox="0 0 23 20"
  fill="none"
  xmlns="http://www.w3.org/2000/svg"
>
  <path
    fill-rule="evenodd"
    clip-rule="evenodd"
    d="M22.9147 1.4204C22.8426 1.18193 22.7271 0.962281 22.5775 0.770603C22.2399 0.338109 21.7283 0.0480382 21.148 0.0056057C20.9055 -0.012545 20.6588 0.0132421 20.4204 0.0855064C20.2213 0.145689 20.0354 0.236065 19.8678 0.351307L7.92787 8.31129C7.80548 8.38889 7.69051 8.48055 7.58555 8.58573C7.2038 8.96666 7.0003 9.47946 6.99982 10.0002C6.99956 10.2848 7.05991 10.5717 7.18491 10.8407C7.28194 11.0508 7.41621 11.2457 7.58554 11.4147C7.69051 11.5199 7.80548 11.6115 7.92788 11.6891L19.8678 19.6491C20.0353 19.7643 20.2213 19.8547 20.4203 19.9149C20.6583 19.9871 20.9048 20.0129 21.1469 19.9949C21.7274 19.9528 22.2393 19.6628 22.5771 19.2303C22.7269 19.0385 22.8425 18.8186 22.9147 18.5799C22.975 18.381 23.003 18.1761 23 17.9729L23 2.02757C23.003 1.82426 22.975 1.61941 22.9147 1.4204ZM19 14.2632L12.6056 10.0002L19 5.73725V14.2632Z"
    fill="#A7A7A7"
  />
  <path
    d="M4.00003 3.00022C4.00003 1.89565 3.1046 1.00022 2.00003 1.00022C0.895463 1.00022 3.05176e-05 1.89565 3.05176e-05 3.00022L3.05176e-05 17.0002C3.05176e-05 18.1048 0.895461 19.0002 2.00003 19.0002C3.1046 19.0002 4.00003 18.1048 4.00003 17.0002L4.00003 3.00022Z"
    fill="#A7A7A7"
  />
</svg>
