<svg
  width="40"
  height="40"
  viewBox="0 0 40 40"
  fill="none"
  xmlns="http://www.w3.org/2000/svg"
>
  <path
    d="M34 20C34 27.732 27.732 34 20 34C12.268 34 5.99997 27.732 5.99997 20C5.99997 12.268 12.268 6 20 6V1.54297e-06C8.95427 1.54297e-06 -3.20475e-05 8.95431 -3.20475e-05 20C-3.20475e-05 31.0457 8.95427 40 20 40C31.0457 40 40 31.0457 40 20H34Z"
    fill="#A7A7A7"
  />
  <path
    d="M23 3C23 4.65686 21.6568 6 20 6C18.3431 6 17 4.65686 17 3C17 1.34315 18.3431 1.54297e-06 20 1.54297e-06C21.6568 1.54297e-06 23 1.34315 23 3Z"
    fill="#A7A7A7"
  />
  <path
    d="M40 20C40 21.6569 38.6568 23 37 23C35.3431 23 34 21.6569 34 20C34 18.3431 35.3431 17 37 17C38.6568 17 40 18.3431 40 20Z"
    fill="#A7A7A7"
  />
  <path
    d="M32.1238 27C28.2578 33.6961 19.6955 35.9904 12.9994 32.1244C6.30334 28.2584 4.00908 19.6961 7.87508 13C11.7411 6.30391 20.3033 4.00966 26.9994 7.87565L29.9994 2.6795C20.4336 -2.84335 8.20177 0.434153 2.67892 10C-2.84392 19.5659 0.43358 31.7977 9.99943 37.3205C19.5653 42.8434 31.7971 39.5659 37.3199 30L32.1238 27Z"
    fill="#A7A7A7"
  />
  <path
    d="M31.0975 6.77757C30.2691 8.21245 28.4343 8.70408 26.9994 7.87565C25.5646 7.04722 25.0729 5.21245 25.9014 3.77757C26.7298 2.3427 28.5646 1.85107 29.9994 2.6795C31.4343 3.50792 31.9259 5.3427 31.0975 6.77757Z"
    fill="#A7A7A7"
  />
  <path
    d="M37.3199 30C36.4915 31.4349 34.6567 31.9265 33.2219 31.0981C31.787 30.2697 31.2954 28.4349 32.1238 27C32.9522 25.5651 34.787 25.0735 36.2219 25.9019C37.6567 26.7304 38.1484 28.5651 37.3199 30Z"
    fill="#A7A7A7"
  />
</svg>
