<svg
  width="240"
  height="240"
  viewBox="0 0 240 240"
  fill="none"
  xmlns="http://www.w3.org/2000/svg"
>
  <path
    d="M193.493 75.3016C188.636 75.3016 184.35 74.3022 180.387 72.254C177.096 70.5473 174.695 68.4711 172.575 66.64C169.374 63.873 167.914 62.6095 164.114 62.6095C160.315 62.6095 158.855 63.8793 155.653 66.64C153.535 68.4711 151.133 70.5473 147.843 72.254C143.881 74.3086 139.589 75.3016 134.735 75.3016C129.882 75.3016 125.592 74.3022 121.629 72.254C118.339 70.5473 115.938 68.4711 113.818 66.64C110.617 63.873 109.157 62.6095 105.359 62.6095C101.561 62.6095 100.099 63.8793 96.8978 66.64C94.7784 68.4647 92.3771 70.5409 89.087 72.2463C85.1251 74.3009 80.833 75.294 75.9809 75.294C71.1289 75.294 66.8381 74.2946 62.8736 72.2463C59.5835 70.5397 57.1822 68.4635 55.0628 66.6324C51.8578 63.8654 50.4012 62.6032 46.6032 62.6032C44.0773 62.6032 41.6549 61.5998 39.8688 59.8137C38.0827 58.0276 37.0793 55.6052 37.0793 53.0794C37.0793 50.5535 38.0827 48.1311 39.8688 46.345C41.6549 44.5589 44.0773 43.5555 46.6032 43.5555C51.4603 43.5555 55.746 44.5549 59.7092 46.6095C62.9993 48.3162 65.4019 50.3924 67.52 52.2235C70.7213 54.9905 72.1816 56.254 75.9809 56.254C79.7803 56.254 81.2393 54.9905 84.4406 52.2235C86.56 50.3924 88.9612 48.3162 92.2514 46.6095C96.2133 44.5549 100.505 43.5555 105.359 43.5555C110.212 43.5555 114.502 44.5549 118.465 46.6095C121.755 48.3162 124.156 50.3924 126.276 52.2235C129.477 54.9905 130.937 56.254 134.735 56.254C138.533 56.254 139.996 54.9905 143.197 52.2235C145.316 50.3924 147.717 48.3162 151.008 46.6095C154.969 44.5549 159.262 43.5555 164.114 43.5555C168.966 43.5555 173.257 44.5549 177.222 46.6095C180.512 48.3162 182.913 50.3924 185.032 52.2235C188.234 54.9905 189.695 56.254 193.493 56.254C196.019 56.254 198.442 57.2574 200.228 59.0434C202.014 60.8295 203.017 63.2519 203.017 65.7778C203.017 68.3036 202.014 70.7261 200.228 72.5121C198.442 74.2982 196.019 75.3016 193.493 75.3016Z"
    fill="url(#paint0_linear_29_51)"
  />
  <path
    d="M193.493 115.675C188.636 115.675 184.35 114.675 180.387 112.627C177.096 110.92 174.695 108.844 172.575 107.013C169.374 104.246 167.914 102.976 164.112 102.976C160.31 102.976 158.852 104.246 155.651 107.007C153.533 108.838 151.13 110.914 147.84 112.621C143.878 114.675 139.586 115.668 134.733 115.668C129.879 115.668 125.59 114.669 121.627 112.621C118.336 110.914 115.935 108.838 113.816 107.007C110.617 104.246 109.157 102.976 105.359 102.976C101.561 102.976 100.099 104.246 96.8978 107.007C94.7784 108.84 92.3771 110.917 89.087 112.627C85.1251 114.682 80.833 115.675 75.9809 115.675C71.1289 115.675 66.8381 114.675 62.8736 112.627C59.5835 110.92 57.1822 108.844 55.0628 107.013C51.8578 104.246 50.4012 102.976 46.6032 102.976C44.0773 102.976 41.6549 101.973 39.8688 100.187C38.0827 98.4008 37.0793 95.9784 37.0793 93.4525C37.0793 90.9266 38.0827 88.5042 39.8688 86.7182C41.6549 84.9321 44.0773 83.9287 46.6032 83.9287C51.4603 83.9287 55.746 84.9281 59.7092 86.9827C62.9993 88.6893 65.4019 90.7655 67.52 92.5966C70.7213 95.3662 72.1816 96.6271 75.9847 96.6271C79.7879 96.6271 81.2432 95.3636 84.4444 92.5966C86.5638 90.7655 88.9651 88.6893 92.2552 86.9827C96.2171 84.9281 100.509 83.9287 105.363 83.9287C110.216 83.9287 114.505 84.9281 118.469 86.9827C121.759 88.6893 124.16 90.7655 126.279 92.5966C129.481 95.3636 130.941 96.6271 134.739 96.6271C138.537 96.6271 140 95.3636 143.201 92.5966C145.319 90.7655 147.721 88.6893 151.012 86.9827C154.969 84.9306 159.257 83.9287 164.112 83.9287C168.966 83.9287 173.255 84.9281 177.219 86.9827C180.509 88.6893 182.91 90.7655 185.03 92.5966C188.239 95.3662 189.695 96.6271 193.493 96.6271C196.019 96.6271 198.442 97.6305 200.228 99.4166C202.014 101.203 203.017 103.625 203.017 106.151C203.017 108.677 202.014 111.099 200.228 112.885C198.442 114.671 196.019 115.675 193.493 115.675Z"
    fill="url(#paint1_linear_29_51)"
  />
  <path
    d="M193.493 156.056C188.636 156.056 184.35 155.056 180.387 153.008C177.096 151.301 174.695 149.225 172.575 147.394C169.374 144.627 167.914 143.364 164.114 143.364C160.315 143.364 158.855 144.633 155.653 147.394C153.535 149.225 151.133 151.301 147.843 153.008C143.881 155.063 139.589 156.056 134.735 156.056C129.882 156.056 125.592 155.056 121.629 153.008C118.339 151.301 115.938 149.225 113.818 147.394C110.617 144.627 109.157 143.364 105.359 143.364C101.561 143.364 100.099 144.633 96.8978 147.394C94.7784 149.225 92.3771 151.301 89.087 153.008C85.1251 155.063 80.833 156.056 75.9809 156.056C71.1289 156.056 66.8381 155.056 62.8736 153.008C59.5835 151.301 57.1822 149.225 55.0628 147.394C51.8578 144.618 50.4012 143.357 46.6032 143.357C44.0773 143.357 41.6549 142.354 39.8688 140.568C38.0827 138.782 37.0793 136.359 37.0793 133.833C37.0793 131.308 38.0827 128.885 39.8688 127.099C41.6549 125.313 44.0773 124.31 46.6032 124.31C51.4603 124.31 55.746 125.309 59.7092 127.357C62.9993 129.064 65.4019 131.14 67.52 132.971C70.7213 135.738 72.1816 137.008 75.9847 137.008C79.7879 137.008 81.2432 135.738 84.4444 132.978C86.5638 131.146 88.9651 129.07 92.2552 127.364C96.2171 125.309 100.509 124.316 105.363 124.316C110.216 124.316 114.505 125.315 118.469 127.364C121.759 129.07 124.16 131.146 126.279 132.978C129.481 135.745 130.941 137.008 134.739 137.008C138.537 137.008 140 135.738 143.201 132.978C145.319 131.146 147.721 129.07 151.012 127.364C154.973 125.309 159.266 124.316 164.118 124.316C168.97 124.316 173.261 125.315 177.225 127.364C180.516 129.07 182.917 131.146 185.036 132.978C188.239 135.738 189.695 137.008 193.493 137.008C196.019 137.008 198.442 138.011 200.228 139.798C202.014 141.584 203.017 144.006 203.017 146.532C203.017 149.058 202.014 151.48 200.228 153.266C198.442 155.052 196.019 156.056 193.493 156.056Z"
    fill="url(#paint2_linear_29_51)"
  />
  <path
    d="M193.493 196.429C188.636 196.429 184.35 195.43 180.387 193.382C177.096 191.675 174.695 189.599 172.575 187.768C169.374 185.001 167.914 183.737 164.114 183.737C160.315 183.737 158.855 185.007 155.653 187.768C153.535 189.599 151.133 191.675 147.843 193.382C143.881 195.436 139.589 196.429 134.735 196.429C129.882 196.429 125.592 195.43 121.629 193.382C118.339 191.675 115.938 189.599 113.818 187.768C110.617 185.001 109.157 183.737 105.359 183.737C101.561 183.737 100.099 185.007 96.8978 187.768C94.7784 189.599 92.3771 191.675 89.087 193.382C85.1251 195.436 80.833 196.429 75.9809 196.429C71.1289 196.429 66.8381 195.43 62.8736 193.382C59.5835 191.675 57.1822 189.599 55.0628 187.768C51.8628 185.001 50.4012 183.737 46.6032 183.737C44.0773 183.737 41.6549 182.734 39.8688 180.948C38.0827 179.162 37.0793 176.739 37.0793 174.213C37.0793 171.687 38.0827 169.265 39.8688 167.479C41.6549 165.693 44.0773 164.689 46.6032 164.689C51.4603 164.689 55.746 165.689 59.7092 167.737C62.9993 169.444 65.4019 171.52 67.52 173.351C70.7213 176.118 72.1816 177.382 75.9809 177.382C79.7803 177.382 81.2393 176.112 84.4406 173.351C86.56 171.52 88.9612 169.444 92.2514 167.737C96.2133 165.682 100.505 164.689 105.359 164.689C110.212 164.689 114.502 165.689 118.465 167.737C121.755 169.444 124.156 171.52 126.276 173.351C129.477 176.118 130.937 177.382 134.735 177.382C138.533 177.382 139.996 176.112 143.197 173.351C145.316 171.52 147.717 169.444 151.008 167.737C154.969 165.682 159.262 164.689 164.114 164.689C168.966 164.689 173.257 165.689 177.222 167.737C180.512 169.444 182.913 171.52 185.032 173.351C188.234 176.118 189.695 177.382 193.493 177.382C196.019 177.382 198.442 178.385 200.228 180.171C202.014 181.957 203.017 184.379 203.017 186.905C203.017 189.431 202.014 191.854 200.228 193.64C198.442 195.426 196.019 196.429 193.493 196.429Z"
    fill="url(#paint3_linear_29_51)"
  />
  <defs>
    <linearGradient
      id="paint0_linear_29_51"
      x1="-79.5"
      y1="75.3015"
      x2="560.5"
      y2="75.3015"
      gradientUnits="userSpaceOnUse"
    >
      <stop stop-color="#A7A7A7" />
      <stop offset="1" stop-color="white" stop-opacity="0" />
    </linearGradient>
    <linearGradient
      id="paint1_linear_29_51"
      x1="-79.5"
      y1="115.675"
      x2="560.5"
      y2="115.675"
      gradientUnits="userSpaceOnUse"
    >
      <stop stop-color="#A7A7A7" />
      <stop offset="1" stop-color="white" stop-opacity="0" />
    </linearGradient>
    <linearGradient
      id="paint2_linear_29_51"
      x1="-79.5"
      y1="156.056"
      x2="560.5"
      y2="156.056"
      gradientUnits="userSpaceOnUse"
    >
      <stop stop-color="#A7A7A7" />
      <stop offset="1" stop-color="white" stop-opacity="0" />
    </linearGradient>
    <linearGradient
      id="paint3_linear_29_51"
      x1="-79.5"
      y1="196.429"
      x2="560.5"
      y2="196.429"
      gradientUnits="userSpaceOnUse"
    >
      <stop stop-color="#A7A7A7" />
      <stop offset="1" stop-color="white" stop-opacity="0" />
    </linearGradient>
  </defs>
</svg>
