<svg
  width="240"
  height="240"
  viewBox="0 0 240 240"
  fill="none"
  xmlns="http://www.w3.org/2000/svg"
>
  <path
    d="M169.768 137.217H108.371C96.2069 137.217 84.5412 132.385 75.94 123.783C67.3388 115.182 62.5067 103.516 62.5067 91.3525C62.5067 79.1886 67.3388 67.5228 75.94 58.9216C84.5412 50.3205 96.2069 45.4884 108.371 45.4884C110.396 45.4876 112.42 45.62 114.428 45.8845C119.551 36.0637 127.194 27.7821 136.573 21.8891C145.952 15.996 156.729 12.7036 167.801 12.3495C178.872 11.9954 189.838 14.5922 199.574 19.8738C209.311 25.1554 217.467 32.9316 223.207 42.405C228.947 51.8784 232.064 62.7081 232.239 73.7834C232.413 84.8588 229.639 95.7812 224.2 105.431C218.761 115.08 210.854 123.11 201.288 128.695C191.723 134.281 180.844 137.222 169.768 137.217Z"
    fill="url(#paint0_linear_23_190)"
  />
  <path
    d="M113.537 165.656H33.9403C19.6368 165.656 8 154.019 8 139.716C8 125.412 19.6368 113.774 33.9403 113.774C37.6196 113.775 41.2567 114.559 44.6103 116.072C47.964 117.586 50.9577 119.795 53.393 122.553C54.2207 123.49 54.8556 124.582 55.2615 125.765C55.6674 126.948 55.8362 128.199 55.7585 129.448C55.6807 130.696 55.3578 131.917 54.8083 133.04C54.2587 134.164 53.4932 135.168 52.5556 135.996C51.6179 136.823 50.5264 137.458 49.3433 137.864C48.1602 138.27 46.9088 138.439 45.6605 138.361C44.4122 138.283 43.1914 137.961 42.0679 137.411C40.9444 136.861 39.9401 136.096 39.1124 135.158C38.4689 134.42 37.6738 133.829 36.7812 133.426C35.8887 133.023 34.9197 132.817 33.9403 132.822C32.1283 132.846 30.3988 133.583 29.1261 134.874C27.8535 136.164 27.1399 137.903 27.1399 139.715C27.1399 141.527 27.8535 143.267 29.1261 144.557C30.3988 145.847 32.1283 146.584 33.9403 146.608H113.537C116.062 146.608 118.485 147.612 120.271 149.398C122.057 151.184 123.06 153.606 123.06 156.132C123.06 158.658 122.057 161.081 120.271 162.867C118.485 164.653 116.062 165.656 113.537 165.656Z"
    fill="url(#paint1_linear_23_190)"
  />
  <path
    d="M98.6082 227.606C84.3047 227.606 72.6666 215.968 72.6666 201.665C72.6666 187.361 84.3047 175.725 98.6082 175.725H191.714C194.24 175.725 196.663 176.728 198.449 178.514C200.235 180.3 201.238 182.722 201.238 185.248C201.238 187.774 200.235 190.197 198.449 191.983C196.663 193.769 194.24 194.772 191.714 194.772H98.6082C97.6951 194.76 96.7886 194.929 95.9414 195.27C95.0942 195.611 94.3232 196.116 93.6731 196.758C93.023 197.399 92.5068 198.163 92.1544 199.006C91.8021 199.848 91.6207 200.752 91.6207 201.665C91.6207 202.579 91.8021 203.483 92.1544 204.325C92.5068 205.168 93.023 205.932 93.6731 206.573C94.3232 207.215 95.0942 207.72 95.9414 208.061C96.7886 208.402 97.6951 208.571 98.6082 208.559C99.5876 208.564 100.557 208.358 101.449 207.955C102.342 207.551 103.137 206.961 103.78 206.222C104.608 205.284 105.612 204.519 106.736 203.969C107.859 203.419 109.08 203.096 110.329 203.019C111.577 202.941 112.829 203.109 114.012 203.515C115.195 203.921 116.287 204.556 117.225 205.384C118.163 206.211 118.928 207.216 119.478 208.339C120.028 209.463 120.351 210.684 120.429 211.932C120.506 213.181 120.338 214.432 119.932 215.615C119.526 216.799 118.891 217.89 118.063 218.828C115.628 221.587 112.634 223.796 109.28 225.309C105.926 226.823 102.288 227.606 98.6082 227.606Z"
    fill="url(#paint2_linear_23_190)"
  />
  <path
    d="M151.491 163.843C143.669 159.326 142.735 148.399 149.679 142.622L168.569 126.907C169.185 126.394 169.945 126.082 170.744 126.014C171.543 125.946 172.345 126.125 173.039 126.526C173.734 126.927 174.288 127.531 174.629 128.257C174.969 128.983 175.079 129.796 174.943 130.586L170.774 154.807C169.242 163.704 159.313 168.36 151.491 163.843Z"
    fill="#69BBFF"
  />
  <defs>
    <linearGradient
      id="paint0_linear_23_190"
      x1="71.0985"
      y1="165.549"
      x2="223.52"
      y2="7.35755"
      gradientUnits="userSpaceOnUse"
    >
      <stop stop-color="#69BBFF" />
      <stop offset="1" stop-color="#9DE0F4" />
    </linearGradient>
    <linearGradient
      id="paint1_linear_23_190"
      x1="127.214"
      y1="68.1881"
      x2="37.299"
      y2="180.221"
      gradientUnits="userSpaceOnUse"
    >
      <stop stop-color="#69BBFF" />
      <stop offset="1" stop-color="#1798FF" />
    </linearGradient>
    <linearGradient
      id="paint2_linear_23_190"
      x1="192.882"
      y1="120.892"
      x2="102.968"
      y2="232.925"
      gradientUnits="userSpaceOnUse"
    >
      <stop stop-color="#69BBFF" />
      <stop offset="1" stop-color="#1798FF" />
    </linearGradient>
  </defs>
</svg>
