<svg
  width="240"
  height="240"
  viewBox="0 0 240 240"
  fill="none"
  xmlns="http://www.w3.org/2000/svg"
>
  <path
    d="M125.368 222.231C123.344 222.233 121.341 221.815 119.486 221.005C117.631 220.194 115.964 219.008 114.59 217.522C112.266 214.963 110.932 211.659 110.829 208.205L108.902 151.167H67.9715C65.5512 151.167 63.1696 150.561 61.0433 149.405C58.9169 148.249 57.1133 146.58 55.7966 144.549C54.4799 142.518 53.6919 140.19 53.5042 137.777C53.3165 135.364 53.7351 132.943 54.722 130.733L101.392 26.2454C102.737 23.2356 105.066 20.7731 107.997 19.2631C110.927 17.7531 114.284 17.2856 117.515 17.9373C120.747 18.5891 123.66 20.3213 125.776 22.8491C127.892 25.3769 129.085 28.5497 129.158 31.8454L130.396 88.0994L172.369 88.8943C174.767 88.94 177.116 89.5793 179.207 90.7548C181.297 91.9303 183.064 93.6055 184.349 95.6307C185.634 97.6558 186.397 99.9678 186.57 102.36C186.743 104.752 186.32 107.15 185.34 109.339L138.582 213.654C137.459 216.217 135.609 218.395 133.263 219.919C130.916 221.444 128.174 222.249 125.376 222.234L125.368 222.231Z"
    fill="url(#paint0_linear_4_97)"
  />
  <defs>
    <linearGradient
      id="paint0_linear_4_97"
      x1="56.0908"
      y1="241.5"
      x2="202.403"
      y2="-36.834"
      gradientUnits="userSpaceOnUse"
    >
      <stop offset="0.06" stop-color="#FF6800" />
      <stop offset="1" stop-color="#FFF100" />
    </linearGradient>
  </defs>
</svg>
