<svg
  width="240"
  height="240"
  viewBox="0 0 240 240"
  fill="none"
  xmlns="http://www.w3.org/2000/svg"
>
  <path
    d="M152.973 207.083H62.9409C54.6921 207.083 46.524 205.458 38.9031 202.302C31.2821 199.145 24.3576 194.518 18.5247 188.685C12.6919 182.852 8.06508 175.928 4.90838 168.307C1.75168 160.686 0.126953 152.518 0.126953 144.269C0.126953 136.02 1.75168 127.852 4.90838 120.231C8.06508 112.61 12.6919 105.686 18.5247 99.8528C24.3576 94.02 31.2821 89.3932 38.9031 86.2365C46.524 83.0798 54.6921 81.455 62.9409 81.455C66.7646 81.4535 70.5805 81.7995 74.3416 82.4887C80.7076 69.1786 90.3392 57.6964 102.339 49.1122C117.171 38.4988 134.679 32.8887 152.973 32.8887C164.41 32.8887 175.736 35.1415 186.303 39.5185C196.87 43.8956 206.472 50.3111 214.56 58.3988C222.647 66.4866 229.063 76.0881 233.44 86.6552C237.817 97.2223 240.07 108.548 240.07 119.986C240.07 131.424 237.817 142.749 233.44 153.316C229.063 163.884 222.647 173.485 214.56 181.573C206.472 189.661 196.87 196.076 186.303 200.453C175.736 204.83 164.41 207.083 152.973 207.083Z"
    fill="url(#paint0_linear_4_116)"
  />
  <defs>
    <linearGradient
      id="paint0_linear_4_116"
      x1="57.2965"
      y1="199.959"
      x2="226.963"
      y2="30.2918"
      gradientUnits="userSpaceOnUse"
    >
      <stop stop-color="#69BBFF" />
      <stop offset="1" stop-color="#9DE0F4" />
    </linearGradient>
  </defs>
</svg>
