<svg
  width="240"
  height="240"
  viewBox="0 0 240 240"
  fill="none"
  xmlns="http://www.w3.org/2000/svg"
>
  <path
    d="M233.257 71.5682C224.466 50.6497 207.907 33.9548 187.06 24.9943C176.351 20.4049 164.821 18.0363 153.169 18.0317H152.973C134.712 18.0317 117.233 23.619 102.414 34.2019C90.3804 42.7918 80.7218 54.2931 74.3416 67.6305C70.5805 66.9417 66.7646 66.5962 62.9409 66.5981C54.6921 66.5981 46.524 68.2228 38.9031 71.3795C31.2821 74.5362 24.3576 79.1631 18.5247 84.9959C12.6919 90.8287 8.06508 97.7532 4.90838 105.374C1.75168 112.995 0.126953 121.163 0.126953 129.412C0.126953 137.661 1.75168 145.829 4.90838 153.45C8.06508 161.071 12.6919 167.995 18.5247 173.828C24.3576 179.661 31.2821 184.288 38.9031 187.445C46.524 190.601 54.6921 192.226 62.9409 192.226L162.193 191.778C183.454 189.619 203.109 179.688 217.538 163.812C228.661 151.525 236.049 136.319 238.833 119.98C241.618 103.641 239.683 86.8464 233.257 71.5682Z"
    fill="url(#paint0_linear_4_88)"
  />
  <path
    d="M138.302 192.443L130.844 188.137L138.302 183.832C139.385 183.207 140.335 182.375 141.096 181.382C141.857 180.39 142.416 179.258 142.74 178.049C143.063 176.841 143.146 175.581 142.983 174.341C142.82 173.101 142.414 171.905 141.788 170.822C141.163 169.739 140.33 168.79 139.338 168.028C138.346 167.267 137.213 166.708 136.005 166.385C133.565 165.731 130.966 166.073 128.778 167.336L121.833 171.346V163.799C121.833 161.274 120.83 158.851 119.044 157.065C117.258 155.279 114.835 154.276 112.31 154.276C109.784 154.276 107.361 155.279 105.575 157.065C103.789 158.851 102.786 161.274 102.786 163.799V171.938L96.1471 168.105C95.0635 167.47 93.8651 167.056 92.6206 166.885C91.3762 166.715 90.1104 166.793 88.8962 167.114C87.6819 167.435 86.5431 167.993 85.5454 168.756C84.5476 169.519 83.7107 170.472 83.0827 171.559C82.4546 172.647 82.048 173.848 81.8861 175.094C81.7242 176.339 81.8103 177.605 82.1394 178.817C82.4684 180.029 83.034 181.164 83.8036 182.157C84.5731 183.149 85.5314 183.98 86.6233 184.601L92.749 188.137L86.6233 191.674C85.5401 192.299 84.5907 193.132 83.8293 194.124C83.0678 195.116 82.5093 196.249 82.1856 197.457C81.8618 198.665 81.7792 199.925 81.9425 201.165C82.1057 202.405 82.5116 203.601 83.1369 204.684C83.7622 205.767 84.5948 206.716 85.5871 207.478C86.5793 208.239 87.7118 208.798 88.9199 209.122C90.128 209.445 91.3881 209.528 92.6281 209.365C93.8681 209.201 95.0639 208.796 96.1471 208.17L102.786 204.333V212.47C102.786 214.996 103.789 217.418 105.575 219.204C107.361 220.99 109.784 221.994 112.31 221.994C114.835 221.994 117.258 220.99 119.044 219.204C120.83 217.418 121.833 214.996 121.833 212.47V204.93L128.778 208.938C130.964 210.182 133.554 210.509 135.981 209.85C138.408 209.191 140.476 207.599 141.733 205.421C142.991 203.243 143.336 200.656 142.693 198.225C142.05 195.794 140.472 193.715 138.302 192.443Z"
    fill="url(#paint1_linear_4_88)"
  />
  <defs>
    <linearGradient
      id="paint0_linear_4_88"
      x1="30.6095"
      y1="231.591"
      x2="190.208"
      y2="35.614"
      gradientUnits="userSpaceOnUse"
    >
      <stop stop-color="#69BBFF" />
      <stop offset="1" stop-color="#9DE0F4" />
    </linearGradient>
    <linearGradient
      id="paint1_linear_4_88"
      x1="246.432"
      y1="49.1938"
      x2="100.779"
      y2="200.672"
      gradientUnits="userSpaceOnUse"
    >
      <stop stop-color="#69BBFF" />
      <stop offset="1" stop-color="#1798FF" />
    </linearGradient>
  </defs>
</svg>
