<svg
  width="240"
  height="240"
  viewBox="0 0 240 240"
  fill="none"
  xmlns="http://www.w3.org/2000/svg"
>
  <path
    d="M211.272 160.701L199.12 153.685L209.173 150.992C211.613 150.338 213.693 148.742 214.956 146.554C216.219 144.366 216.561 141.767 215.907 139.327C215.254 136.887 213.657 134.807 211.47 133.544C209.282 132.281 206.682 131.939 204.243 132.593L175.791 140.212L136.886 117.754L175.325 95.562L203.777 103.181C204.99 103.521 206.258 103.616 207.508 103.462C208.758 103.308 209.965 102.908 211.06 102.284C212.154 101.66 213.114 100.826 213.883 99.8285C214.653 98.8313 215.217 97.6914 215.543 96.4747C215.869 95.258 215.951 93.9887 215.783 92.7403C215.615 91.4919 215.201 90.2893 214.565 89.2019C213.929 88.1146 213.084 87.1642 212.078 86.4058C211.073 85.6474 209.926 85.096 208.706 84.7835L198.655 82.0928L210.808 75.0769C212.977 73.805 214.556 71.7265 215.199 69.2952C215.841 66.8638 215.496 64.2768 214.239 62.0988C212.981 59.9209 210.913 58.3287 208.486 57.6698C206.059 57.0108 203.47 57.3386 201.284 58.5816L189.132 65.5975L191.826 55.5442C192.15 54.3361 192.232 53.0761 192.069 51.8361C191.906 50.5961 191.5 49.4004 190.875 48.3173C190.249 47.2342 189.417 46.2849 188.424 45.5235C187.432 44.7622 186.3 44.2037 185.092 43.8801C183.883 43.5564 182.623 43.4738 181.383 43.6371C180.143 43.8004 178.948 44.2063 177.865 44.8316C176.782 45.457 175.832 46.2896 175.071 47.2818C174.31 48.2741 173.751 49.4066 173.427 50.6147L165.808 79.0655L127.888 100.961V61.2877L148.714 40.4623C149.598 39.5779 150.3 38.5279 150.778 37.3724C151.257 36.2169 151.503 34.9784 151.503 33.7277C151.503 32.4769 151.257 31.2385 150.778 30.0829C150.3 28.9274 149.598 27.8775 148.714 26.9931C147.829 26.1087 146.779 25.4071 145.624 24.9285C144.468 24.4499 143.23 24.2035 141.979 24.2035C140.728 24.2035 139.49 24.4499 138.334 24.9285C137.179 25.4071 136.129 26.1087 135.245 26.9931L127.879 34.3581V20.3175C127.879 17.7916 126.876 15.3692 125.09 13.5832C123.304 11.7971 120.882 10.7937 118.356 10.7937C115.83 10.7937 113.407 11.7971 111.621 13.5832C109.835 15.3692 108.832 17.7916 108.832 20.3175V34.3505L101.467 26.9854C100.59 26.0666 99.5383 25.3323 98.3736 24.8259C97.2088 24.3195 95.9546 24.0512 94.6846 24.0367C93.4146 24.0223 92.1546 24.262 90.9786 24.7417C89.8027 25.2215 88.7346 25.9316 87.8371 26.8303C86.9397 27.729 86.2311 28.7982 85.753 29.9748C85.2749 31.1514 85.0369 32.4118 85.0532 33.6818C85.0694 34.9517 85.3395 36.2056 85.8476 37.3696C86.3556 38.5336 87.0914 39.5843 88.0115 40.4597L108.837 61.2851V101.562L74.2972 81.6254L66.6782 53.1734C65.9971 50.7649 64.3953 48.7213 62.2193 47.4846C60.0432 46.2479 57.4677 45.9176 55.05 46.5651C52.6322 47.2126 50.5665 48.7858 49.2997 50.9445C48.033 53.1032 47.6669 55.6739 48.2807 58.1004L50.9728 68.1537L38.8204 61.1366C36.6328 59.8736 34.0331 59.5314 31.5933 60.1852C29.1534 60.8391 27.0732 62.4353 25.8102 64.6229C24.5473 66.8105 24.2051 69.4102 24.8589 71.85C25.5127 74.2899 27.109 76.3701 29.2966 77.6331L41.449 84.6489L31.3956 87.3423C30.1876 87.666 29.0551 88.2244 28.0628 88.9858C27.0706 89.7471 26.238 90.6964 25.6126 91.7796C24.9872 92.8627 24.5813 94.0584 24.4181 95.2983C24.2548 96.5383 24.3374 97.7983 24.661 99.0064C24.9847 100.214 25.5432 101.347 26.3045 102.339C27.0659 103.331 28.0152 104.164 29.0983 104.789C30.1814 105.415 31.3771 105.821 32.6171 105.984C33.8571 106.147 35.1171 106.065 36.3252 105.741L64.7772 98.122L98.7912 117.754L64.3125 137.66L35.8617 130.041C33.4218 129.387 30.8223 129.729 28.6348 130.992C26.4474 132.255 24.8512 134.335 24.1975 136.775C23.5438 139.215 23.8861 141.815 25.1491 144.002C26.4121 146.19 28.4923 147.786 30.9321 148.439L40.9855 151.133L28.8331 158.149C26.6455 159.412 25.0492 161.492 24.3954 163.932C23.7416 166.372 24.0838 168.971 25.3467 171.159C26.6097 173.346 28.6899 174.943 31.1298 175.596C33.5697 176.25 36.1693 175.908 38.3569 174.645L50.5093 167.628L47.816 177.681C47.4656 178.897 47.3611 180.171 47.5086 181.428C47.6561 182.685 48.0527 183.9 48.6752 185.002C49.2976 186.104 50.1335 187.071 51.1339 187.846C52.1343 188.621 53.2792 189.189 54.5016 189.517C55.7241 189.845 56.9996 189.926 58.2536 189.755C59.5077 189.584 60.715 189.165 61.8052 188.522C62.8954 187.879 63.8465 187.025 64.603 186.01C65.3594 184.996 65.906 183.84 66.2109 182.612L73.8299 154.16L108.834 133.951V178.48L88.009 199.305C87.1246 200.19 86.423 201.24 85.9444 202.395C85.4658 203.551 85.2194 204.789 85.2194 206.04C85.2194 207.291 85.4658 208.529 85.9444 209.685C86.423 210.84 87.1246 211.89 88.009 212.775C88.8934 213.659 89.9433 214.361 91.0988 214.839C92.2544 215.318 93.4928 215.564 94.7436 215.564C95.9943 215.564 97.2328 215.318 98.3883 214.839C99.5438 214.361 100.594 213.659 101.478 212.775L108.843 205.41V219.443C108.843 221.968 109.847 224.391 111.633 226.177C113.419 227.963 115.841 228.966 118.367 228.966C120.893 228.966 123.315 227.963 125.101 226.177C126.887 224.391 127.891 221.968 127.891 219.443V205.413L135.256 212.778C136.14 213.663 137.19 214.364 138.346 214.843C139.501 215.322 140.74 215.568 141.991 215.568C143.241 215.568 144.48 215.322 145.635 214.843C146.791 214.364 147.841 213.663 148.725 212.778C149.61 211.894 150.311 210.844 150.79 209.689C151.268 208.533 151.515 207.295 151.515 206.044C151.515 204.793 151.268 203.555 150.79 202.399C150.311 201.244 149.61 200.194 148.725 199.309L127.9 178.484V134.554L166.274 156.707L173.893 185.152C174.217 186.36 174.776 187.492 175.537 188.485C176.298 189.477 177.248 190.309 178.331 190.935C179.414 191.56 180.61 191.966 181.849 192.129C183.089 192.293 184.349 192.21 185.558 191.886C186.766 191.563 187.898 191.004 188.89 190.243C189.883 189.482 190.715 188.532 191.341 187.449C191.966 186.366 192.372 185.17 192.535 183.93C192.698 182.69 192.616 181.43 192.292 180.222L189.598 170.169L201.75 177.185C203.936 178.428 206.525 178.756 208.952 178.097C211.38 177.438 213.447 175.846 214.705 173.668C215.962 171.49 216.307 168.903 215.665 166.471C215.022 164.04 213.443 161.961 211.274 160.69L211.272 160.701Z"
    fill="url(#paint0_linear_4_95)"
  />
  <defs>
    <linearGradient
      id="paint0_linear_4_95"
      x1="240.979"
      y1="-87.3942"
      x2="-355.864"
      y2="934.08"
      gradientUnits="userSpaceOnUse"
    >
      <stop stop-color="#69BBFF" />
      <stop offset="1" stop-color="#1798FF" />
    </linearGradient>
  </defs>
</svg>
