<svg
  width="240"
  height="240"
  viewBox="0 0 240 240"
  fill="none"
  xmlns="http://www.w3.org/2000/svg"
>
  <path
    d="M120.072 100.549C168.222 100.549 207.256 88.7275 207.256 74.1443C207.256 59.5612 168.222 47.7393 120.072 47.7393C71.9221 47.7393 32.8887 59.5612 32.8887 74.1443C32.8887 88.7275 71.9221 100.549 120.072 100.549Z"
    fill="url(#paint0_linear_4_123)"
  />
  <path
    d="M120.072 110.073C95.8752 110.073 73.0003 107.182 55.6632 101.931C46.6574 99.2045 39.4371 95.9182 34.1952 92.1658C31.0473 89.9118 28.5482 87.4331 26.7679 84.8007C24.5089 81.4572 23.3647 77.8737 23.3647 74.1468C23.3647 70.4198 24.5076 66.8363 26.7679 63.4941C28.5457 60.8579 31.0473 58.3791 34.1952 56.129C39.4346 52.3766 46.6574 49.0915 55.6632 46.3639C73.0003 41.1131 95.8752 38.2217 120.072 38.2217C144.269 38.2217 167.144 41.1131 184.481 46.3639C193.487 49.0915 200.71 52.3766 205.95 56.129C209.097 58.3829 211.596 60.8617 213.376 63.4941C215.635 66.8363 216.779 70.421 216.779 74.1468C216.779 77.8725 215.637 81.4572 213.376 84.8007C211.598 87.4357 209.097 89.9144 205.949 92.1658C200.71 95.9182 193.487 99.2033 184.481 101.931C167.144 107.182 144.269 110.073 120.072 110.073ZM42.5622 74.1442C42.9851 74.7614 44.2244 76.1976 47.4955 78.0972C51.559 80.4591 57.3559 82.7017 64.2575 84.5849C79.4892 88.7385 99.3051 91.0255 120.07 91.0255C140.834 91.0255 160.65 88.7398 175.882 84.5849C182.786 82.7017 188.58 80.4591 192.643 78.0972C195.915 76.1925 197.154 74.7614 197.577 74.1442C197.154 73.5271 195.915 72.0922 192.643 70.1912C188.58 67.8306 182.783 65.5868 175.882 63.7036C160.643 59.5499 140.834 57.2629 120.07 57.2629C99.3051 57.2629 79.4892 59.5487 64.2575 63.7036C57.3533 65.5868 51.559 67.8306 47.4955 70.1912C44.2244 72.0922 42.9851 73.5271 42.5622 74.1442Z"
    fill="url(#paint1_linear_4_123)"
  />
  <path
    d="M120.072 140.093C104.689 140.093 89.4498 138.587 76.0085 135.736C66.8911 133.804 54.5152 130.37 47.3279 124.986C46.2874 124.252 45.4046 123.317 44.7318 122.235C44.0591 121.154 43.6099 119.949 43.4109 118.692C43.212 117.434 43.2672 116.149 43.5734 114.913C43.8797 113.677 44.4306 112.515 45.1938 111.496C45.9569 110.476 46.9167 109.621 48.0163 108.979C49.116 108.337 50.3333 107.922 51.5961 107.758C52.8589 107.595 54.1417 107.687 55.3685 108.028C56.5953 108.369 57.7413 108.952 58.7387 109.744C61.3177 111.677 68.2434 114.624 79.945 117.109C88.4326 118.908 102.282 121.045 120.072 121.045C129.888 121.045 144.816 120.362 160.199 117.109C171.904 114.628 178.83 111.68 181.405 109.744C183.43 108.3 185.939 107.705 188.397 108.087C190.854 108.469 193.065 109.797 194.556 111.787C196.047 113.777 196.701 116.271 196.378 118.737C196.054 121.203 194.779 123.444 192.825 124.982C185.638 130.367 173.262 133.8 164.144 135.732C150.694 138.587 135.455 140.093 120.072 140.093Z"
    fill="url(#paint2_linear_4_123)"
  />
  <path
    d="M120.072 172.19C108.216 172.19 95.6188 170.793 83.6442 168.145C74.9369 166.22 66.6055 163.634 61.3597 161.228C59.0639 160.174 57.2805 158.252 56.4019 155.884C55.5233 153.516 55.6214 150.896 56.6747 148.6C57.728 146.304 59.6501 144.521 62.0183 143.642C64.3865 142.763 67.0068 142.861 69.3026 143.915C74.5204 146.308 95.0486 153.143 120.072 153.143C145.096 153.143 165.624 146.308 170.842 143.915C171.979 143.389 173.209 143.094 174.461 143.044C175.712 142.995 176.962 143.193 178.137 143.628C179.312 144.062 180.39 144.724 181.308 145.575C182.227 146.427 182.969 147.451 183.492 148.59C184.014 149.729 184.306 150.959 184.352 152.211C184.398 153.463 184.197 154.712 183.76 155.886C183.322 157.06 182.658 158.136 181.804 159.053C180.95 159.969 179.923 160.708 178.783 161.228C173.538 163.64 165.207 166.221 156.5 168.145C144.525 170.791 131.929 172.19 120.072 172.19Z"
    fill="url(#paint3_linear_4_123)"
  />
  <path
    d="M120.072 201.59C110.081 201.589 100.116 200.558 90.3364 198.515C82.2373 196.797 75.2468 194.48 71.1618 192.158C70.0742 191.54 69.1191 190.714 68.3507 189.727C67.5824 188.74 67.016 187.612 66.6838 186.406C66.3517 185.2 66.2602 183.941 66.4148 182.7C66.5694 181.459 66.9669 180.26 67.5846 179.173C68.2024 178.085 69.0283 177.13 70.0152 176.361C71.0021 175.593 72.1307 175.027 73.3365 174.695C74.5423 174.362 75.8017 174.271 77.0428 174.426C78.284 174.58 79.4825 174.978 80.57 175.595C83.8348 177.451 99.2646 182.543 120.076 182.543C140.887 182.543 156.317 177.451 159.583 175.595C161.776 174.402 164.349 174.117 166.75 174.802C169.15 175.487 171.186 177.087 172.419 179.258C173.651 181.429 173.982 183.997 173.34 186.409C172.698 188.821 171.135 190.885 168.987 192.157C164.898 194.479 157.907 196.797 149.812 198.513C140.031 200.558 130.065 201.589 120.072 201.59Z"
    fill="url(#paint4_linear_4_123)"
  />
  <defs>
    <linearGradient
      id="paint0_linear_4_123"
      x1="32.8887"
      y1="74.1443"
      x2="207.256"
      y2="74.1443"
      gradientUnits="userSpaceOnUse"
    >
      <stop stop-color="#69BBFF" />
      <stop offset="1" stop-color="#9DE0F4" />
    </linearGradient>
    <linearGradient
      id="paint1_linear_4_123"
      x1="208.339"
      y1="-75.7936"
      x2="50.9825"
      y2="191.505"
      gradientUnits="userSpaceOnUse"
    >
      <stop stop-color="#69BBFF" />
      <stop offset="1" stop-color="#1798FF" />
    </linearGradient>
    <linearGradient
      id="paint2_linear_4_123"
      x1="227.234"
      y1="-64.6701"
      x2="69.879"
      y2="202.629"
      gradientUnits="userSpaceOnUse"
    >
      <stop stop-color="#69BBFF" />
      <stop offset="1" stop-color="#1798FF" />
    </linearGradient>
    <linearGradient
      id="paint3_linear_4_123"
      x1="242.626"
      y1="-55.6091"
      x2="85.2695"
      y2="211.69"
      gradientUnits="userSpaceOnUse"
    >
      <stop stop-color="#69BBFF" />
      <stop offset="1" stop-color="#1798FF" />
    </linearGradient>
    <linearGradient
      id="paint4_linear_4_123"
      x1="256.312"
      y1="-47.5514"
      x2="98.9559"
      y2="219.746"
      gradientUnits="userSpaceOnUse"
    >
      <stop stop-color="#69BBFF" />
      <stop offset="1" stop-color="#1798FF" />
    </linearGradient>
  </defs>
</svg>
