<svg
  width="240"
  height="240"
  viewBox="0 0 240 240"
  fill="none"
  xmlns="http://www.w3.org/2000/svg"
>
  <path
    d="M119.549 205.098C166.797 205.098 205.098 166.797 205.098 119.549C205.098 72.3017 166.797 34 119.549 34C72.3017 34 34 72.3017 34 119.549C34 166.797 72.3017 205.098 119.549 205.098Z"
    fill="#C5E8FF"
    stroke="#69BBFF"
    stroke-width="20"
  />
  <path
    d="M96.672 98.9994C98.4247 100.751 100.791 101.751 103.269 101.786C105.746 101.821 108.14 100.889 109.942 99.1886V162.476C109.942 165.002 110.945 167.424 112.731 169.211C114.517 170.997 116.94 172 119.466 172C121.992 172 124.414 170.997 126.2 169.211C127.986 167.424 128.99 165.002 128.99 162.476V99.1886C130.813 100.885 133.228 101.799 135.717 101.736C138.206 101.673 140.572 100.638 142.307 98.8518C144.042 97.0658 145.009 94.6713 145 92.1813C144.991 89.6912 144.007 87.3037 142.259 85.5302L126.196 69.4717C124.41 67.6859 121.988 66.6827 119.462 66.6827C116.936 66.6827 114.514 67.6859 112.728 69.4717L96.6682 85.5302C95.784 86.4148 95.0828 87.4649 94.6044 88.6206C94.1261 89.7762 93.8801 91.0148 93.8804 92.2655C93.8808 93.5163 94.1275 94.7547 94.6065 95.9101C95.0855 97.0655 95.7874 98.1152 96.672 98.9994Z"
    fill="#1798FF"
  />
</svg>
