<svg
  width="240"
  height="240"
  viewBox="0 0 240 240"
  fill="none"
  xmlns="http://www.w3.org/2000/svg"
>
  <path
    d="M79.8512 138.762C78.6322 138.762 77.4263 138.511 76.3084 138.025C69.8317 135.21 64.2839 130.619 60.3063 124.784C56.3287 118.948 54.0837 112.107 53.8307 105.049C53.5777 97.9915 55.327 91.0064 58.8766 84.9012C62.4261 78.796 67.6309 73.8199 73.8893 70.5481C80.1478 67.2763 87.2043 65.8423 94.2434 66.412C101.282 66.9817 108.017 69.5317 113.667 73.7673C119.318 78.0029 123.655 83.7512 126.177 90.3477C128.698 96.9443 129.302 104.12 127.917 111.045C127.588 112.689 126.801 114.207 125.645 115.423C121.611 119.659 118.424 124.629 116.258 130.063C116.066 130.542 115.877 131.028 115.69 131.558C114.901 133.747 113.285 135.54 111.189 136.551C109.092 137.562 106.683 137.711 104.479 136.965C104.147 136.853 103.811 136.746 103.477 136.65L103.458 136.643C96.8538 134.707 89.7768 135.181 83.4906 137.982C82.3461 138.496 81.1058 138.761 79.8512 138.762Z"
    fill="url(#paint0_linear_4_119)"
  />
  <path
    d="M78.9631 57.4753C76.8127 57.4736 74.7261 56.7442 73.043 55.4057C71.3599 54.0673 70.1792 52.1986 69.6932 50.1039L67.4761 40.5521C67.1858 39.3312 67.1397 38.065 67.3403 36.8263C67.5409 35.5875 67.9844 34.4006 68.6452 33.3338C69.3061 32.267 70.1712 31.3413 71.1909 30.6099C72.2107 29.8786 73.3649 29.3559 74.5873 29.0721C75.8096 28.7882 77.0761 28.7487 78.3138 28.9559C79.5514 29.163 80.736 29.6127 81.7993 30.2792C82.8626 30.9456 83.7838 31.8156 84.5098 32.8392C85.2358 33.8627 85.7523 35.0197 86.0297 36.2435L88.2532 45.794C88.577 47.1915 88.5811 48.644 88.2653 50.0433C87.9496 51.4426 87.322 52.7526 86.4295 53.8756C85.5369 54.9986 84.4024 55.9056 83.1105 56.5291C81.8186 57.1526 80.4026 57.4765 78.9682 57.4766L78.9631 57.4753Z"
    fill="url(#paint1_linear_4_119)"
  />
  <path
    d="M43.277 82.9996C41.4996 83.0002 39.7579 82.5007 38.251 81.5583L29.9284 76.3723C28.854 75.7172 27.92 74.8557 27.1804 73.8375C26.4409 72.8194 25.9105 71.6647 25.6198 70.4404C25.3292 69.216 25.284 67.9461 25.487 66.7042C25.6901 65.4623 26.1372 64.2729 26.8026 63.2048C27.468 62.1367 28.3384 61.2111 29.3637 60.4814C30.3889 59.7517 31.5486 59.2324 32.7757 58.9536C34.0029 58.6747 35.2731 58.6418 36.513 58.8568C37.7529 59.0717 38.9379 59.5303 39.9995 60.2059L48.3221 65.3907C50.0798 66.485 51.4331 68.1223 52.1769 70.0546C52.9207 71.987 53.0144 74.1091 52.444 76.0995C51.8736 78.0899 50.6701 79.8402 49.0157 81.0853C47.3613 82.3304 45.3463 83.0024 43.2757 82.9996H43.277Z"
    fill="url(#paint2_linear_4_119)"
  />
  <path
    d="M26.5393 128.5C24.2006 128.5 21.9436 127.64 20.1987 126.082C18.4537 124.525 17.3428 122.38 17.0776 120.057C16.8124 117.733 17.4114 115.393 18.7606 113.482C20.1098 111.572 22.1147 110.225 24.3933 109.698L33.9438 107.479C35.162 107.196 36.4241 107.156 37.6579 107.361C38.8917 107.566 40.0731 108.011 41.1346 108.673C42.1962 109.334 43.1171 110.198 43.8447 111.215C44.5724 112.232 45.0925 113.383 45.3755 114.601C45.6585 115.82 45.6988 117.082 45.494 118.315C45.2893 119.549 44.8435 120.731 44.1822 121.792C43.5208 122.854 42.6569 123.775 41.6397 124.502C40.6224 125.23 39.4719 125.75 38.2536 126.033L28.7019 128.251C27.9929 128.417 27.2673 128.5 26.5393 128.5Z"
    fill="url(#paint3_linear_4_119)"
  />
  <path
    d="M122.244 64.6586C120.546 64.6573 118.879 64.2018 117.416 63.3393C115.953 62.4769 114.747 61.2389 113.923 59.7536C113.099 58.2683 112.688 56.5897 112.731 54.8919C112.774 53.1941 113.271 51.5387 114.169 50.0973L119.355 41.7748C120.014 40.707 120.877 39.7797 121.894 39.0463C122.912 38.3129 124.065 37.7877 125.286 37.501C126.507 37.2144 127.773 37.1718 129.011 37.3757C130.249 37.5797 131.434 38.0262 132.499 38.6896C133.563 39.3529 134.486 40.2201 135.215 41.2413C135.944 42.2625 136.463 43.4176 136.744 44.6402C137.025 45.8628 137.062 47.1288 136.852 48.3656C136.642 49.6024 136.19 50.7856 135.522 51.8472L130.337 60.1697C129.481 61.5442 128.289 62.6777 126.872 63.4632C125.456 64.2486 123.864 64.6601 122.244 64.6586Z"
    fill="url(#paint4_linear_4_119)"
  />
  <path
    d="M159.03 210.937H95.2843C82.9193 210.937 71.0608 206.025 62.3174 197.282C53.5741 188.538 48.6621 176.68 48.6621 164.315C48.6621 151.95 53.5741 140.091 62.3174 131.348C71.0608 122.604 82.9193 117.692 95.2843 117.692C97.5757 117.691 99.8642 117.858 102.131 118.19C107.271 108.066 115.017 99.4949 124.572 93.3613C134.127 87.2277 145.145 83.7532 156.49 83.2959C167.835 82.8387 179.097 85.4152 189.115 90.76C199.133 96.1047 207.544 104.024 213.481 113.702C219.419 123.38 222.668 134.467 222.894 145.819C223.12 157.171 220.314 168.378 214.766 178.285C209.219 188.191 201.129 196.439 191.332 202.178C181.535 207.917 170.385 210.94 159.03 210.934V210.937Z"
    fill="url(#paint5_linear_4_119)"
  />
  <defs>
    <linearGradient
      id="paint0_linear_4_119"
      x1="39.2214"
      y1="242.047"
      x2="146.396"
      y2="-44.2403"
      gradientUnits="userSpaceOnUse"
    >
      <stop offset="0.06" stop-color="#FF6800" />
      <stop offset="1" stop-color="#FFF100" />
    </linearGradient>
    <linearGradient
      id="paint1_linear_4_119"
      x1="7.81388"
      y1="230.289"
      x2="114.988"
      y2="-55.999"
      gradientUnits="userSpaceOnUse"
    >
      <stop offset="0.06" stop-color="#FF6800" />
      <stop offset="1" stop-color="#FFF100" />
    </linearGradient>
    <linearGradient
      id="paint2_linear_4_119"
      x1="-17.0646"
      y1="220.977"
      x2="90.11"
      y2="-65.3115"
      gradientUnits="userSpaceOnUse"
    >
      <stop offset="0.06" stop-color="#FF6800" />
      <stop offset="1" stop-color="#FFF100" />
    </linearGradient>
    <linearGradient
      id="paint3_linear_4_119"
      x1="-8.47655"
      y1="224.192"
      x2="98.698"
      y2="-62.0964"
      gradientUnits="userSpaceOnUse"
    >
      <stop offset="0.06" stop-color="#FF6800" />
      <stop offset="1" stop-color="#FFF100" />
    </linearGradient>
    <linearGradient
      id="paint4_linear_4_119"
      x1="51.5827"
      y1="246.675"
      x2="158.757"
      y2="-39.6131"
      gradientUnits="userSpaceOnUse"
    >
      <stop offset="0.06" stop-color="#FF6800" />
      <stop offset="1" stop-color="#FFF100" />
    </linearGradient>
    <linearGradient
      id="paint5_linear_4_119"
      x1="48.6596"
      y1="147.121"
      x2="222.846"
      y2="147.121"
      gradientUnits="userSpaceOnUse"
    >
      <stop stop-color="#69BBFF" />
      <stop offset="1" stop-color="#9DE0F4" />
    </linearGradient>
  </defs>
</svg>
