<svg
  width="208"
  height="20"
  viewBox="0 0 208 20"
  fill="none"
  xmlns="http://www.w3.org/2000/svg"
>
  <path
    d="M9.21204 18.58C8.95071 18.804 8.59604 18.9813 8.14804 19.112C7.70004 19.2613 7.16804 19.336 6.55204 19.336C5.78671 19.336 5.12404 19.224 4.56404 19C4.00404 18.7947 3.63071 18.496 3.44404 18.104C3.23871 17.656 2.99604 16.9467 2.71604 15.976C2.45471 15.0053 2.19338 13.9413 1.93204 12.784C1.67071 11.6267 1.41871 10.4507 1.17604 9.256C0.952043 8.06134 0.77471 7.00667 0.644043 6.092C0.905376 5.83067 1.25071 5.60667 1.68004 5.42C2.12804 5.21467 2.61338 5.112 3.13604 5.112C3.78938 5.112 4.32138 5.26134 4.73204 5.56C5.16138 5.84 5.42271 6.33467 5.51604 7.044C5.70271 8.46267 5.86138 9.63867 5.99204 10.572C6.12271 11.4867 6.22538 12.2427 6.30004 12.84C6.39338 13.4187 6.45871 13.8667 6.49604 14.184C6.55204 14.4827 6.59871 14.7253 6.63604 14.912H6.74804C6.80404 14.6133 6.89738 14.184 7.02804 13.624C7.17738 13.0453 7.34538 12.392 7.53204 11.664C7.71871 10.936 7.91471 10.152 8.12004 9.312C8.32538 8.45334 8.53071 7.604 8.73604 6.764C9.10938 6.55867 9.47338 6.4 9.82804 6.288C10.2014 6.176 10.6587 6.12 11.2 6.12C11.8534 6.12 12.4134 6.22267 12.88 6.428C13.3467 6.63334 13.6454 6.95067 13.776 7.38C14 8.20134 14.2147 9.004 14.42 9.788C14.6254 10.5533 14.812 11.272 14.98 11.944C15.148 12.5973 15.2974 13.1853 15.428 13.708C15.5587 14.212 15.652 14.6133 15.708 14.912H15.848C16.0534 13.4747 16.2494 11.9813 16.436 10.432C16.6414 8.88267 16.828 7.30534 16.996 5.7C17.332 5.49467 17.6867 5.34534 18.06 5.252C18.4334 5.15867 18.8067 5.112 19.18 5.112C19.8334 5.112 20.3747 5.252 20.804 5.532C21.2334 5.812 21.448 6.29734 21.448 6.988C21.448 7.28667 21.4014 7.73467 21.308 8.332C21.2147 8.92934 21.0934 9.60134 20.944 10.348C20.7947 11.0947 20.6174 11.8787 20.412 12.7C20.2254 13.5213 20.0294 14.3147 19.824 15.08C19.6374 15.8453 19.4507 16.536 19.264 17.152C19.096 17.768 18.9467 18.244 18.816 18.58C18.5547 18.804 18.1534 18.9813 17.612 19.112C17.0707 19.2613 16.492 19.336 15.876 19.336C14.308 19.336 13.384 18.944 13.104 18.16C12.992 17.824 12.852 17.404 12.684 16.9C12.516 16.3773 12.3387 15.808 12.152 15.192C11.9654 14.576 11.788 13.9413 11.62 13.288C11.452 12.616 11.312 11.972 11.2 11.356C11.0694 12.0093 10.9107 12.6907 10.724 13.4C10.5374 14.0907 10.3414 14.772 10.136 15.444C9.94938 16.0973 9.77204 16.704 9.60404 17.264C9.43604 17.8053 9.30538 18.244 9.21204 18.58Z"
    fill="#1798ff"
  />
  <path
    d="M30.8005 19.448C29.6991 19.448 28.6725 19.2987 27.7205 19C26.7871 18.6827 25.9658 18.216 25.2565 17.6C24.5658 16.984 24.0151 16.2093 23.6045 15.276C23.2125 14.3427 23.0165 13.2507 23.0165 12C23.0165 10.768 23.2125 9.71334 23.6045 8.836C24.0151 7.94 24.5471 7.212 25.2005 6.652C25.8538 6.07334 26.6005 5.65334 27.4405 5.392C28.2805 5.112 29.1391 4.972 30.0165 4.972C31.0058 4.972 31.9018 5.12134 32.7045 5.42C33.5258 5.71867 34.2258 6.12934 34.8045 6.652C35.4018 7.17467 35.8591 7.8 36.1765 8.528C36.5125 9.256 36.6805 10.0493 36.6805 10.908C36.6805 11.5427 36.5031 12.028 36.1485 12.364C35.7938 12.7 35.2991 12.9147 34.6645 13.008L27.7485 14.044C27.9538 14.66 28.3738 15.1267 29.0085 15.444C29.6431 15.7427 30.3711 15.892 31.1925 15.892C31.9578 15.892 32.6765 15.7987 33.3485 15.612C34.0391 15.4067 34.5991 15.1733 35.0285 14.912C35.3271 15.0987 35.5791 15.36 35.7845 15.696C35.9898 16.032 36.0925 16.3867 36.0925 16.76C36.0925 17.6 35.7005 18.2253 34.9165 18.636C34.3191 18.9533 33.6471 19.168 32.9005 19.28C32.1538 19.392 31.4538 19.448 30.8005 19.448ZM30.0165 8.444C29.5685 8.444 29.1765 8.51867 28.8405 8.668C28.5231 8.81734 28.2618 9.01334 28.0565 9.256C27.8511 9.48 27.6925 9.74134 27.5805 10.04C27.4871 10.32 27.4311 10.6093 27.4125 10.908L32.2005 10.124C32.1445 9.75067 31.9391 9.37734 31.5845 9.004C31.2298 8.63067 30.7071 8.444 30.0165 8.444Z"
    fill="#1798ff"
  />
  <path
    d="M44.7957 15.976C45.113 15.976 45.4583 15.948 45.8317 15.892C46.2237 15.8173 46.513 15.724 46.6997 15.612V13.372L44.6837 13.54C44.161 13.5773 43.7317 13.6893 43.3957 13.876C43.0597 14.0627 42.8917 14.3427 42.8917 14.716C42.8917 15.0893 43.0317 15.3973 43.3117 15.64C43.6103 15.864 44.105 15.976 44.7957 15.976ZM44.5717 4.972C45.5797 4.972 46.4943 5.07467 47.3157 5.28C48.1557 5.48534 48.865 5.80267 49.4437 6.232C50.041 6.64267 50.4983 7.17467 50.8157 7.828C51.133 8.46267 51.2917 9.21867 51.2917 10.096V16.368C51.2917 16.8533 51.1517 17.2547 50.8717 17.572C50.6103 17.8707 50.293 18.132 49.9197 18.356C48.7063 19.084 46.9983 19.448 44.7957 19.448C43.8063 19.448 42.9103 19.3547 42.1077 19.168C41.3237 18.9813 40.6423 18.7013 40.0637 18.328C39.5037 17.9547 39.065 17.4787 38.7477 16.9C38.449 16.3213 38.2997 15.6493 38.2997 14.884C38.2997 13.596 38.6823 12.6067 39.4477 11.916C40.213 11.2253 41.3983 10.796 43.0037 10.628L46.6717 10.236V10.04C46.6717 9.49867 46.429 9.116 45.9437 8.892C45.477 8.64934 44.7957 8.528 43.8997 8.528C43.1903 8.528 42.4997 8.60267 41.8277 8.752C41.1557 8.90134 40.549 9.088 40.0077 9.312C39.765 9.144 39.5597 8.892 39.3917 8.556C39.2237 8.20134 39.1397 7.83734 39.1397 7.464C39.1397 6.97867 39.2517 6.596 39.4757 6.316C39.7183 6.01734 40.0823 5.76534 40.5677 5.56C41.109 5.35467 41.7437 5.20534 42.4717 5.112C43.2183 5.01867 43.9183 4.972 44.5717 4.972Z"
    fill="#1798ff"
  />
  <path
    d="M58.9621 14.324C58.9621 14.8093 59.1115 15.1547 59.4101 15.36C59.7275 15.5653 60.1661 15.668 60.7261 15.668C61.0061 15.668 61.2955 15.6493 61.5941 15.612C61.8928 15.556 62.1541 15.4907 62.3781 15.416C62.5461 15.6213 62.6861 15.8547 62.7981 16.116C62.9288 16.3587 62.9941 16.6573 62.9941 17.012C62.9941 17.7213 62.7235 18.3 62.1821 18.748C61.6595 19.196 60.7261 19.42 59.3821 19.42C57.7395 19.42 56.4701 19.0467 55.5741 18.3C54.6968 17.5533 54.2581 16.34 54.2581 14.66V2.676C54.4635 2.62 54.7528 2.564 55.1261 2.508C55.5181 2.43334 55.9288 2.396 56.3581 2.396C57.1795 2.396 57.8141 2.54534 58.2621 2.844C58.7288 3.124 58.9621 3.73067 58.9621 4.664V6.456H62.6301C62.7421 6.66134 62.8448 6.92267 62.9381 7.24C63.0501 7.53867 63.1061 7.87467 63.1061 8.248C63.1061 8.90134 62.9568 9.37734 62.6581 9.676C62.3781 9.956 61.9955 10.096 61.5101 10.096H58.9621V14.324Z"
    fill="#1798ff"
  />
  <path
    d="M78.8531 18.972C78.6664 19.028 78.3677 19.084 77.9571 19.14C77.5651 19.196 77.1544 19.224 76.7251 19.224C76.3144 19.224 75.9411 19.196 75.6051 19.14C75.2877 19.084 75.0171 18.972 74.7931 18.804C74.5691 18.636 74.3917 18.412 74.2611 18.132C74.1491 17.8333 74.0931 17.4507 74.0931 16.984V10.768C74.0931 10.0027 73.8971 9.47067 73.5051 9.172C73.1317 8.85467 72.6651 8.696 72.1051 8.696C71.7317 8.696 71.3771 8.74267 71.0411 8.836C70.7051 8.92934 70.4344 9.04134 70.2291 9.172V18.972C70.0424 19.028 69.7437 19.084 69.3331 19.14C68.9411 19.196 68.5304 19.224 68.1011 19.224C67.6904 19.224 67.3171 19.196 66.9811 19.14C66.6637 19.084 66.3931 18.972 66.1691 18.804C65.9451 18.636 65.7677 18.412 65.6371 18.132C65.5251 17.8333 65.4691 17.4507 65.4691 16.984V0.744004C65.6744 0.706671 65.9731 0.660004 66.3651 0.604005C66.7757 0.529338 67.1864 0.492004 67.5971 0.492004C68.0077 0.492004 68.3717 0.520004 68.6891 0.576003C69.0251 0.632004 69.3051 0.744004 69.5291 0.912004C69.7531 1.08 69.9211 1.31334 70.0331 1.612C70.1637 1.892 70.2291 2.26534 70.2291 2.732V5.476C70.4717 5.38267 70.8357 5.28 71.3211 5.168C71.8251 5.03734 72.3757 4.972 72.9731 4.972C74.8211 4.972 76.2584 5.43867 77.2851 6.372C78.3304 7.28667 78.8531 8.65867 78.8531 10.488V18.972Z"
    fill="#1798ff"
  />
  <path
    d="M88.988 19.448C87.8867 19.448 86.86 19.2987 85.908 19C84.9746 18.6827 84.1533 18.216 83.444 17.6C82.7533 16.984 82.2026 16.2093 81.792 15.276C81.4 14.3427 81.204 13.2507 81.204 12C81.204 10.768 81.4 9.71334 81.792 8.836C82.2026 7.94 82.7346 7.212 83.388 6.652C84.0413 6.07334 84.788 5.65334 85.628 5.392C86.468 5.112 87.3266 4.972 88.204 4.972C89.1933 4.972 90.0893 5.12134 90.892 5.42C91.7133 5.71867 92.4133 6.12934 92.992 6.652C93.5893 7.17467 94.0466 7.8 94.364 8.528C94.7 9.256 94.868 10.0493 94.868 10.908C94.868 11.5427 94.6907 12.028 94.336 12.364C93.9813 12.7 93.4866 12.9147 92.852 13.008L85.936 14.044C86.1413 14.66 86.5613 15.1267 87.196 15.444C87.8307 15.7427 88.5586 15.892 89.38 15.892C90.1453 15.892 90.864 15.7987 91.536 15.612C92.2266 15.4067 92.7866 15.1733 93.216 14.912C93.5146 15.0987 93.7666 15.36 93.972 15.696C94.1773 16.032 94.28 16.3867 94.28 16.76C94.28 17.6 93.888 18.2253 93.104 18.636C92.5066 18.9533 91.8346 19.168 91.088 19.28C90.3413 19.392 89.6413 19.448 88.988 19.448ZM88.204 8.444C87.756 8.444 87.364 8.51867 87.028 8.668C86.7106 8.81734 86.4493 9.01334 86.244 9.256C86.0386 9.48 85.88 9.74134 85.768 10.04C85.6746 10.32 85.6186 10.6093 85.6 10.908L90.388 10.124C90.332 9.75067 90.1266 9.37734 89.772 9.004C89.4173 8.63067 88.8946 8.444 88.204 8.444Z"
    fill="#1798ff"
  />
  <path
    d="M101.919 18.972C101.732 19.028 101.434 19.084 101.023 19.14C100.631 19.196 100.221 19.224 99.7912 19.224C99.3805 19.224 99.0072 19.196 98.6712 19.14C98.3538 19.084 98.0832 18.972 97.8592 18.804C97.6352 18.636 97.4578 18.412 97.3272 18.132C97.2152 17.8333 97.1592 17.4507 97.1592 16.984V8.584C97.1592 8.15467 97.2338 7.79067 97.3832 7.492C97.5512 7.17467 97.7845 6.89467 98.0832 6.652C98.3818 6.40934 98.7458 6.19467 99.1752 6.008C99.6232 5.80267 100.099 5.62534 100.603 5.476C101.107 5.32667 101.63 5.21467 102.171 5.14C102.712 5.04667 103.254 5 103.795 5C104.691 5 105.401 5.17734 105.923 5.532C106.446 5.868 106.707 6.428 106.707 7.212C106.707 7.47334 106.67 7.73467 106.595 7.996C106.521 8.23867 106.427 8.46267 106.315 8.668C105.923 8.668 105.522 8.68667 105.111 8.724C104.701 8.76134 104.299 8.81734 103.907 8.892C103.515 8.96667 103.142 9.05067 102.787 9.144C102.451 9.21867 102.162 9.312 101.919 9.424V18.972Z"
    fill="#1798ff"
  />
  <path
    d="M115.823 8.724C115.357 8.724 114.909 8.79867 114.479 8.948C114.069 9.09734 113.705 9.32134 113.387 9.62C113.089 9.9 112.846 10.2547 112.659 10.684C112.473 11.1133 112.379 11.6173 112.379 12.196C112.379 13.3533 112.706 14.2213 113.359 14.8C114.031 15.3787 114.843 15.668 115.795 15.668C116.355 15.668 116.841 15.6027 117.251 15.472C117.662 15.3413 118.026 15.2013 118.343 15.052C118.717 15.3133 118.997 15.6027 119.183 15.92C119.37 16.2187 119.463 16.5827 119.463 17.012C119.463 17.7773 119.099 18.3747 118.371 18.804C117.643 19.2147 116.635 19.42 115.347 19.42C114.171 19.42 113.107 19.252 112.155 18.916C111.203 18.5613 110.382 18.076 109.691 17.46C109.019 16.8253 108.497 16.0693 108.123 15.192C107.75 14.3147 107.563 13.344 107.563 12.28C107.563 11.048 107.759 9.97467 108.151 9.06C108.562 8.12667 109.113 7.36134 109.803 6.764C110.494 6.16667 111.287 5.71867 112.183 5.42C113.098 5.12134 114.059 4.972 115.067 4.972C116.411 4.972 117.447 5.21467 118.175 5.7C118.903 6.18534 119.267 6.81067 119.267 7.576C119.267 7.93067 119.183 8.26667 119.015 8.584C118.847 8.88267 118.651 9.144 118.427 9.368C118.11 9.21867 117.727 9.07867 117.279 8.948C116.831 8.79867 116.346 8.724 115.823 8.724Z"
    fill="#ff6800"
  />
  <path
    d="M135.291 18.972C135.104 19.028 134.805 19.084 134.395 19.14C134.003 19.196 133.592 19.224 133.163 19.224C132.752 19.224 132.379 19.196 132.043 19.14C131.725 19.084 131.455 18.972 131.231 18.804C131.007 18.636 130.829 18.412 130.699 18.132C130.587 17.8333 130.531 17.4507 130.531 16.984V10.768C130.531 10.0027 130.335 9.47067 129.943 9.172C129.569 8.85467 129.103 8.696 128.543 8.696C128.169 8.696 127.815 8.74267 127.479 8.836C127.143 8.92934 126.872 9.04134 126.667 9.172V18.972C126.48 19.028 126.181 19.084 125.771 19.14C125.379 19.196 124.968 19.224 124.539 19.224C124.128 19.224 123.755 19.196 123.419 19.14C123.101 19.084 122.831 18.972 122.607 18.804C122.383 18.636 122.205 18.412 122.075 18.132C121.963 17.8333 121.907 17.4507 121.907 16.984V0.744004C122.112 0.706671 122.411 0.660004 122.803 0.604005C123.213 0.529338 123.624 0.492004 124.035 0.492004C124.445 0.492004 124.809 0.520004 125.127 0.576003C125.463 0.632004 125.743 0.744004 125.967 0.912004C126.191 1.08 126.359 1.31334 126.471 1.612C126.601 1.892 126.667 2.26534 126.667 2.732V5.476C126.909 5.38267 127.273 5.28 127.759 5.168C128.263 5.03734 128.813 4.972 129.411 4.972C131.259 4.972 132.696 5.43867 133.723 6.372C134.768 7.28667 135.291 8.65867 135.291 10.488V18.972Z"
    fill="#ff6800"
  />
  <path
    d="M145.425 19.448C144.324 19.448 143.297 19.2987 142.345 19C141.412 18.6827 140.591 18.216 139.881 17.6C139.191 16.984 138.64 16.2093 138.229 15.276C137.837 14.3427 137.641 13.2507 137.641 12C137.641 10.768 137.837 9.71334 138.229 8.836C138.64 7.94 139.172 7.212 139.825 6.652C140.479 6.07334 141.225 5.65334 142.065 5.392C142.905 5.112 143.764 4.972 144.641 4.972C145.631 4.972 146.527 5.12134 147.329 5.42C148.151 5.71867 148.851 6.12934 149.429 6.652C150.027 7.17467 150.484 7.8 150.801 8.528C151.137 9.256 151.305 10.0493 151.305 10.908C151.305 11.5427 151.128 12.028 150.773 12.364C150.419 12.7 149.924 12.9147 149.289 13.008L142.373 14.044C142.579 14.66 142.999 15.1267 143.633 15.444C144.268 15.7427 144.996 15.892 145.817 15.892C146.583 15.892 147.301 15.7987 147.973 15.612C148.664 15.4067 149.224 15.1733 149.653 14.912C149.952 15.0987 150.204 15.36 150.409 15.696C150.615 16.032 150.717 16.3867 150.717 16.76C150.717 17.6 150.325 18.2253 149.541 18.636C148.944 18.9533 148.272 19.168 147.525 19.28C146.779 19.392 146.079 19.448 145.425 19.448ZM144.641 8.444C144.193 8.444 143.801 8.51867 143.465 8.668C143.148 8.81734 142.887 9.01334 142.681 9.256C142.476 9.48 142.317 9.74134 142.205 10.04C142.112 10.32 142.056 10.6093 142.037 10.908L146.825 10.124C146.769 9.75067 146.564 9.37734 146.209 9.004C145.855 8.63067 145.332 8.444 144.641 8.444Z"
    fill="#ff6800"
  />
  <path
    d="M161.269 8.724C160.802 8.724 160.354 8.79867 159.925 8.948C159.514 9.09734 159.15 9.32134 158.833 9.62C158.534 9.9 158.291 10.2547 158.105 10.684C157.918 11.1133 157.825 11.6173 157.825 12.196C157.825 13.3533 158.151 14.2213 158.805 14.8C159.477 15.3787 160.289 15.668 161.241 15.668C161.801 15.668 162.286 15.6027 162.697 15.472C163.107 15.3413 163.471 15.2013 163.789 15.052C164.162 15.3133 164.442 15.6027 164.629 15.92C164.815 16.2187 164.909 16.5827 164.909 17.012C164.909 17.7773 164.545 18.3747 163.817 18.804C163.089 19.2147 162.081 19.42 160.793 19.42C159.617 19.42 158.553 19.252 157.601 18.916C156.649 18.5613 155.827 18.076 155.137 17.46C154.465 16.8253 153.942 16.0693 153.569 15.192C153.195 14.3147 153.009 13.344 153.009 12.28C153.009 11.048 153.205 9.97467 153.597 9.06C154.007 8.12667 154.558 7.36134 155.249 6.764C155.939 6.16667 156.733 5.71867 157.629 5.42C158.543 5.12134 159.505 4.972 160.513 4.972C161.857 4.972 162.893 5.21467 163.621 5.7C164.349 6.18534 164.713 6.81067 164.713 7.576C164.713 7.93067 164.629 8.26667 164.461 8.584C164.293 8.88267 164.097 9.144 163.873 9.368C163.555 9.21867 163.173 9.07867 162.725 8.948C162.277 8.79867 161.791 8.724 161.269 8.724Z"
    fill="#ff6800"
  />
  <path
    d="M180.596 16.536C180.503 17.4133 180.241 18.0853 179.812 18.552C179.401 19.0187 178.795 19.252 177.992 19.252C177.395 19.252 176.863 19.112 176.396 18.832C175.929 18.5333 175.425 18.0387 174.884 17.348L172.112 13.876V18.972C171.907 19.0093 171.599 19.056 171.188 19.112C170.796 19.1867 170.395 19.224 169.984 19.224C169.573 19.224 169.2 19.196 168.864 19.14C168.547 19.084 168.276 18.972 168.052 18.804C167.828 18.636 167.651 18.412 167.52 18.132C167.408 17.8333 167.352 17.4507 167.352 16.984V0.772004C167.557 0.716004 167.856 0.660004 168.248 0.604005C168.659 0.529338 169.069 0.492004 169.48 0.492004C169.891 0.492004 170.255 0.520004 170.572 0.576003C170.908 0.632004 171.188 0.744004 171.412 0.912004C171.636 1.08 171.804 1.31334 171.916 1.612C172.047 1.892 172.112 2.26534 172.112 2.732V10.124L176.928 5.196C177.899 5.196 178.673 5.41067 179.252 5.84C179.849 6.26934 180.148 6.81067 180.148 7.464C180.148 7.744 180.101 8.00534 180.008 8.248C179.915 8.472 179.765 8.70534 179.56 8.948C179.373 9.19067 179.121 9.452 178.804 9.732C178.505 9.99334 178.151 10.3013 177.74 10.656L176.116 12.056L180.596 16.536Z"
    fill="#ff6800"
  />
  <path
    d="M189.394 19.448C188.293 19.448 187.266 19.2987 186.314 19C185.381 18.6827 184.56 18.216 183.85 17.6C183.16 16.984 182.609 16.2093 182.198 15.276C181.806 14.3427 181.61 13.2507 181.61 12C181.61 10.768 181.806 9.71334 182.198 8.836C182.609 7.94 183.141 7.212 183.794 6.652C184.448 6.07334 185.194 5.65334 186.034 5.392C186.874 5.112 187.733 4.972 188.61 4.972C189.6 4.972 190.496 5.12134 191.298 5.42C192.12 5.71867 192.82 6.12934 193.398 6.652C193.996 7.17467 194.453 7.8 194.77 8.528C195.106 9.256 195.274 10.0493 195.274 10.908C195.274 11.5427 195.097 12.028 194.742 12.364C194.388 12.7 193.893 12.9147 193.258 13.008L186.342 14.044C186.548 14.66 186.968 15.1267 187.602 15.444C188.237 15.7427 188.965 15.892 189.786 15.892C190.552 15.892 191.27 15.7987 191.942 15.612C192.633 15.4067 193.193 15.1733 193.622 14.912C193.921 15.0987 194.173 15.36 194.378 15.696C194.584 16.032 194.686 16.3867 194.686 16.76C194.686 17.6 194.294 18.2253 193.51 18.636C192.913 18.9533 192.241 19.168 191.494 19.28C190.748 19.392 190.048 19.448 189.394 19.448ZM188.61 8.444C188.162 8.444 187.77 8.51867 187.434 8.668C187.117 8.81734 186.856 9.01334 186.65 9.256C186.445 9.48 186.286 9.74134 186.174 10.04C186.081 10.32 186.025 10.6093 186.006 10.908L190.794 10.124C190.738 9.75067 190.533 9.37734 190.178 9.004C189.824 8.63067 189.301 8.444 188.61 8.444Z"
    fill="#ff6800"
  />
  <path
    d="M202.325 18.972C202.139 19.028 201.84 19.084 201.429 19.14C201.037 19.196 200.627 19.224 200.197 19.224C199.787 19.224 199.413 19.196 199.077 19.14C198.76 19.084 198.489 18.972 198.265 18.804C198.041 18.636 197.864 18.412 197.733 18.132C197.621 17.8333 197.565 17.4507 197.565 16.984V8.584C197.565 8.15467 197.64 7.79067 197.789 7.492C197.957 7.17467 198.191 6.89467 198.489 6.652C198.788 6.40934 199.152 6.19467 199.581 6.008C200.029 5.80267 200.505 5.62534 201.009 5.476C201.513 5.32667 202.036 5.21467 202.577 5.14C203.119 5.04667 203.66 5 204.201 5C205.097 5 205.807 5.17734 206.329 5.532C206.852 5.868 207.113 6.428 207.113 7.212C207.113 7.47334 207.076 7.73467 207.001 7.996C206.927 8.23867 206.833 8.46267 206.721 8.668C206.329 8.668 205.928 8.68667 205.517 8.724C205.107 8.76134 204.705 8.81734 204.313 8.892C203.921 8.96667 203.548 9.05067 203.193 9.144C202.857 9.21867 202.568 9.312 202.325 9.424V18.972Z"
    fill="#ff6800"
  />
</svg>
