<svg width="131" height="19" viewBox="0 0 131 19" fill="none" xmlns="http://www.w3.org/2000/svg">
<path d="M8.568 18.088C8.30667 18.312 7.952 18.4893 7.504 18.62C7.056 18.7693 6.524 18.844 5.908 18.844C5.14267 18.844 4.48 18.732 3.92 18.508C3.36 18.3027 2.98667 18.004 2.8 17.612C2.59467 17.164 2.352 16.4547 2.072 15.484C1.81067 14.5133 1.54933 13.4493 1.288 12.292C1.02667 11.1347 0.774667 9.95867 0.532 8.764C0.308 7.56933 0.130667 6.51467 0 5.6C0.261333 5.33867 0.606667 5.11467 1.036 4.928C1.484 4.72267 1.96933 4.62 2.492 4.62C3.14533 4.62 3.67733 4.76933 4.088 5.068C4.51733 5.348 4.77867 5.84267 4.872 6.552C5.05867 7.97067 5.21733 9.14667 5.348 10.08C5.47867 10.9947 5.58133 11.7507 5.656 12.348C5.74933 12.9267 5.81467 13.3747 5.852 13.692C5.908 13.9907 5.95467 14.2333 5.992 14.42H6.104C6.16 14.1213 6.25333 13.692 6.384 13.132C6.53333 12.5533 6.70133 11.9 6.888 11.172C7.07467 10.444 7.27067 9.66 7.476 8.82C7.68133 7.96133 7.88667 7.112 8.092 6.272C8.46533 6.06667 8.82933 5.908 9.184 5.796C9.55733 5.684 10.0147 5.628 10.556 5.628C11.2093 5.628 11.7693 5.73067 12.236 5.936C12.7027 6.14133 13.0013 6.45867 13.132 6.888C13.356 7.70933 13.5707 8.512 13.776 9.296C13.9813 10.0613 14.168 10.78 14.336 11.452C14.504 12.1053 14.6533 12.6933 14.784 13.216C14.9147 13.72 15.008 14.1213 15.064 14.42H15.204C15.4093 12.9827 15.6053 11.4893 15.792 9.94C15.9973 8.39067 16.184 6.81333 16.352 5.208C16.688 5.00267 17.0427 4.85333 17.416 4.76C17.7893 4.66667 18.1627 4.62 18.536 4.62C19.1893 4.62 19.7307 4.76 20.16 5.04C20.5893 5.32 20.804 5.80533 20.804 6.496C20.804 6.79467 20.7573 7.24267 20.664 7.84C20.5707 8.43733 20.4493 9.10933 20.3 9.856C20.1507 10.6027 19.9733 11.3867 19.768 12.208C19.5813 13.0293 19.3853 13.8227 19.18 14.588C18.9933 15.3533 18.8067 16.044 18.62 16.66C18.452 17.276 18.3027 17.752 18.172 18.088C17.9107 18.312 17.5093 18.4893 16.968 18.62C16.4267 18.7693 15.848 18.844 15.232 18.844C13.664 18.844 12.74 18.452 12.46 17.668C12.348 17.332 12.208 16.912 12.04 16.408C11.872 15.8853 11.6947 15.316 11.508 14.7C11.3213 14.084 11.144 13.4493 10.976 12.796C10.808 12.124 10.668 11.48 10.556 10.864C10.4253 11.5173 10.2667 12.1987 10.08 12.908C9.89333 13.5987 9.69733 14.28 9.492 14.952C9.30533 15.6053 9.128 16.212 8.96 16.772C8.792 17.3133 8.66133 17.752 8.568 18.088Z" fill="#A7A7A7"/>
<path d="M27.7204 13.832C27.7204 14.3173 27.8698 14.6627 28.1684 14.868C28.4858 15.0733 28.9244 15.176 29.4844 15.176C29.7644 15.176 30.0538 15.1573 30.3524 15.12C30.6511 15.064 30.9124 14.9987 31.1364 14.924C31.3044 15.1293 31.4444 15.3627 31.5564 15.624C31.6871 15.8667 31.7524 16.1653 31.7524 16.52C31.7524 17.2293 31.4818 17.808 30.9404 18.256C30.4178 18.704 29.4844 18.928 28.1404 18.928C26.4978 18.928 25.2284 18.5547 24.3324 17.808C23.4551 17.0613 23.0164 15.848 23.0164 14.168V2.184C23.2218 2.128 23.5111 2.072 23.8844 2.016C24.2764 1.94133 24.6871 1.904 25.1164 1.904C25.9378 1.904 26.5724 2.05333 27.0204 2.352C27.4871 2.632 27.7204 3.23867 27.7204 4.172V5.964H31.3884C31.5004 6.16933 31.6031 6.43067 31.6964 6.748C31.8084 7.04667 31.8644 7.38267 31.8644 7.756C31.8644 8.40933 31.7151 8.88533 31.4164 9.184C31.1364 9.464 30.7538 9.604 30.2684 9.604H27.7204V13.832Z" fill="#A7A7A7"/>
<path d="M47.6114 18.48C47.4247 18.536 47.126 18.592 46.7154 18.648C46.3234 18.704 45.9127 18.732 45.4834 18.732C45.0727 18.732 44.6994 18.704 44.3634 18.648C44.046 18.592 43.7754 18.48 43.5514 18.312C43.3274 18.144 43.15 17.92 43.0194 17.64C42.9074 17.3413 42.8514 16.9587 42.8514 16.492V10.276C42.8514 9.51067 42.6554 8.97867 42.2634 8.68C41.89 8.36267 41.4234 8.204 40.8634 8.204C40.49 8.204 40.1354 8.25067 39.7994 8.344C39.4634 8.43733 39.1927 8.54933 38.9874 8.68V18.48C38.8007 18.536 38.502 18.592 38.0914 18.648C37.6994 18.704 37.2887 18.732 36.8594 18.732C36.4487 18.732 36.0754 18.704 35.7394 18.648C35.422 18.592 35.1514 18.48 34.9274 18.312C34.7034 18.144 34.526 17.92 34.3954 17.64C34.2834 17.3413 34.2274 16.9587 34.2274 16.492V0.252C34.4327 0.214666 34.7314 0.168 35.1234 0.112C35.534 0.0373334 35.9447 0 36.3554 0C36.766 0 37.13 0.0279996 37.4474 0.0839989C37.7834 0.139999 38.0634 0.252 38.2874 0.42C38.5114 0.588 38.6794 0.821333 38.7914 1.12C38.922 1.4 38.9874 1.77333 38.9874 2.24V4.984C39.23 4.89067 39.594 4.788 40.0794 4.676C40.5834 4.54533 41.134 4.48 41.7314 4.48C43.5794 4.48 45.0167 4.94667 46.0434 5.88C47.0887 6.79467 47.6114 8.16667 47.6114 9.996V18.48Z" fill="#A7A7A7"/>
<path d="M55.3103 18.48C55.1236 18.536 54.8249 18.592 54.4143 18.648C54.0223 18.704 53.6116 18.732 53.1823 18.732C52.7716 18.732 52.3983 18.704 52.0623 18.648C51.7449 18.592 51.4743 18.48 51.2503 18.312C51.0263 18.144 50.8489 17.92 50.7183 17.64C50.6063 17.3413 50.5503 16.9587 50.5503 16.492V8.092C50.5503 7.66267 50.6249 7.29867 50.7743 7C50.9423 6.68267 51.1756 6.40267 51.4743 6.16C51.7729 5.91733 52.1369 5.70267 52.5663 5.516C53.0143 5.31067 53.4903 5.13333 53.9943 4.984C54.4983 4.83467 55.0209 4.72267 55.5623 4.648C56.1036 4.55467 56.645 4.508 57.1863 4.508C58.0823 4.508 58.7916 4.68533 59.3143 5.04C59.8369 5.376 60.0983 5.936 60.0983 6.72C60.0983 6.98133 60.0609 7.24267 59.9863 7.504C59.9116 7.74667 59.8183 7.97067 59.7063 8.176C59.3143 8.176 58.9129 8.19467 58.5023 8.232C58.0916 8.26933 57.6903 8.32533 57.2983 8.4C56.9063 8.47467 56.533 8.55867 56.1783 8.652C55.8423 8.72667 55.5529 8.82 55.3103 8.932V18.48Z" fill="#A7A7A7"/>
<path d="M69.2145 8.232C68.7478 8.232 68.2998 8.30667 67.8705 8.456C67.4598 8.60533 67.0958 8.82933 66.7785 9.128C66.4798 9.408 66.2371 9.76267 66.0505 10.192C65.8638 10.6213 65.7705 11.1253 65.7705 11.704C65.7705 12.8613 66.0971 13.7293 66.7505 14.308C67.4225 14.8867 68.2345 15.176 69.1865 15.176C69.7465 15.176 70.2318 15.1107 70.6425 14.98C71.0531 14.8493 71.4171 14.7093 71.7345 14.56C72.1078 14.8213 72.3878 15.1107 72.5745 15.428C72.7611 15.7267 72.8545 16.0907 72.8545 16.52C72.8545 17.2853 72.4905 17.8827 71.7625 18.312C71.0345 18.7227 70.0265 18.928 68.7385 18.928C67.5625 18.928 66.4985 18.76 65.5465 18.424C64.5945 18.0693 63.7731 17.584 63.0825 16.968C62.4105 16.3333 61.8878 15.5773 61.5145 14.7C61.1411 13.8227 60.9545 12.852 60.9545 11.788C60.9545 10.556 61.1505 9.48267 61.5425 8.568C61.9531 7.63467 62.5038 6.86933 63.1945 6.272C63.8851 5.67467 64.6785 5.22667 65.5745 4.928C66.4891 4.62933 67.4505 4.48 68.4585 4.48C69.8025 4.48 70.8385 4.72267 71.5665 5.208C72.2945 5.69333 72.6585 6.31867 72.6585 7.084C72.6585 7.43867 72.5745 7.77467 72.4065 8.092C72.2385 8.39067 72.0425 8.652 71.8185 8.876C71.5011 8.72667 71.1185 8.58667 70.6705 8.456C70.2225 8.30667 69.7371 8.232 69.2145 8.232Z" fill="#A7A7A7"/>
<path d="M88.6817 18.48C88.495 18.536 88.1964 18.592 87.7857 18.648C87.3937 18.704 86.983 18.732 86.5537 18.732C86.143 18.732 85.7697 18.704 85.4337 18.648C85.1164 18.592 84.8457 18.48 84.6217 18.312C84.3977 18.144 84.2204 17.92 84.0897 17.64C83.9777 17.3413 83.9217 16.9587 83.9217 16.492V10.276C83.9217 9.51067 83.7257 8.97867 83.3337 8.68C82.9604 8.36267 82.4937 8.204 81.9337 8.204C81.5604 8.204 81.2057 8.25067 80.8697 8.344C80.5337 8.43733 80.263 8.54933 80.0577 8.68V18.48C79.871 18.536 79.5724 18.592 79.1617 18.648C78.7697 18.704 78.359 18.732 77.9297 18.732C77.519 18.732 77.1457 18.704 76.8097 18.648C76.4924 18.592 76.2217 18.48 75.9977 18.312C75.7737 18.144 75.5964 17.92 75.4657 17.64C75.3537 17.3413 75.2977 16.9587 75.2977 16.492V0.252C75.503 0.214666 75.8017 0.168 76.1937 0.112C76.6044 0.0373334 77.015 0 77.4257 0C77.8364 0 78.2004 0.0279996 78.5177 0.0839989C78.8537 0.139999 79.1337 0.252 79.3577 0.42C79.5817 0.588 79.7497 0.821333 79.8617 1.12C79.9924 1.4 80.0577 1.77333 80.0577 2.24V4.984C80.3004 4.89067 80.6644 4.788 81.1497 4.676C81.6537 4.54533 82.2044 4.48 82.8017 4.48C84.6497 4.48 86.087 4.94667 87.1137 5.88C88.159 6.79467 88.6817 8.16667 88.6817 9.996V18.48Z" fill="#A7A7A7"/>
<path d="M99.2926 8.232C98.8259 8.232 98.3779 8.30667 97.9486 8.456C97.5379 8.60533 97.1739 8.82933 96.8566 9.128C96.5579 9.408 96.3153 9.76267 96.1286 10.192C95.9419 10.6213 95.8486 11.1253 95.8486 11.704C95.8486 12.8613 96.1753 13.7293 96.8286 14.308C97.5006 14.8867 98.3126 15.176 99.2646 15.176C99.8246 15.176 100.31 15.1107 100.721 14.98C101.131 14.8493 101.495 14.7093 101.813 14.56C102.186 14.8213 102.466 15.1107 102.653 15.428C102.839 15.7267 102.933 16.0907 102.933 16.52C102.933 17.2853 102.569 17.8827 101.841 18.312C101.113 18.7227 100.105 18.928 98.8166 18.928C97.6406 18.928 96.5766 18.76 95.6246 18.424C94.6726 18.0693 93.8513 17.584 93.1606 16.968C92.4886 16.3333 91.9659 15.5773 91.5926 14.7C91.2193 13.8227 91.0326 12.852 91.0326 11.788C91.0326 10.556 91.2286 9.48267 91.6206 8.568C92.0313 7.63467 92.5819 6.86933 93.2726 6.272C93.9633 5.67467 94.7566 5.22667 95.6526 4.928C96.5673 4.62933 97.5286 4.48 98.5366 4.48C99.8806 4.48 100.917 4.72267 101.645 5.208C102.373 5.69333 102.737 6.31867 102.737 7.084C102.737 7.43867 102.653 7.77467 102.485 8.092C102.317 8.39067 102.121 8.652 101.897 8.876C101.579 8.72667 101.197 8.58667 100.749 8.456C100.301 8.30667 99.8153 8.232 99.2926 8.232Z" fill="#A7A7A7"/>
<path d="M118.62 16.044C118.526 16.9213 118.265 17.5933 117.836 18.06C117.425 18.5267 116.818 18.76 116.016 18.76C115.418 18.76 114.886 18.62 114.42 18.34C113.953 18.0413 113.449 17.5467 112.908 16.856L110.136 13.384V18.48C109.93 18.5173 109.622 18.564 109.212 18.62C108.82 18.6947 108.418 18.732 108.008 18.732C107.597 18.732 107.224 18.704 106.888 18.648C106.57 18.592 106.3 18.48 106.076 18.312C105.852 18.144 105.674 17.92 105.544 17.64C105.432 17.3413 105.376 16.9587 105.376 16.492V0.28C105.581 0.223999 105.88 0.168 106.272 0.112C106.682 0.0373334 107.093 0 107.504 0C107.914 0 108.278 0.0279996 108.596 0.0839989C108.932 0.139999 109.212 0.252 109.436 0.42C109.66 0.588 109.828 0.821333 109.94 1.12C110.07 1.4 110.136 1.77333 110.136 2.24V9.632L114.952 4.704C115.922 4.704 116.697 4.91867 117.276 5.348C117.873 5.77733 118.172 6.31867 118.172 6.972C118.172 7.252 118.125 7.51333 118.032 7.756C117.938 7.98 117.789 8.21333 117.584 8.456C117.397 8.69867 117.145 8.96 116.828 9.24C116.529 9.50133 116.174 9.80933 115.764 10.164L114.14 11.564L118.62 16.044Z" fill="#A7A7A7"/>
<path d="M125.611 18.48C125.424 18.536 125.126 18.592 124.715 18.648C124.323 18.704 123.912 18.732 123.483 18.732C123.072 18.732 122.699 18.704 122.363 18.648C122.046 18.592 121.775 18.48 121.551 18.312C121.327 18.144 121.15 17.92 121.019 17.64C120.907 17.3413 120.851 16.9587 120.851 16.492V8.092C120.851 7.66267 120.926 7.29867 121.075 7C121.243 6.68267 121.476 6.40267 121.775 6.16C122.074 5.91733 122.438 5.70267 122.867 5.516C123.315 5.31067 123.791 5.13333 124.295 4.984C124.799 4.83467 125.322 4.72267 125.863 4.648C126.404 4.55467 126.946 4.508 127.487 4.508C128.383 4.508 129.092 4.68533 129.615 5.04C130.138 5.376 130.399 5.936 130.399 6.72C130.399 6.98133 130.362 7.24267 130.287 7.504C130.212 7.74667 130.119 7.97067 130.007 8.176C129.615 8.176 129.214 8.19467 128.803 8.232C128.392 8.26933 127.991 8.32533 127.599 8.4C127.207 8.47467 126.834 8.55867 126.479 8.652C126.143 8.72667 125.854 8.82 125.611 8.932V18.48Z" fill="#A7A7A7"/>
</svg>
